<svg aria-hidden="true" style="position: absolute; width: 0; height: 0; overflow: hidden;" version="1.1" xmlns="http://www.w3.org/2000/svg" xmlns:xlink="http://www.w3.org/1999/xlink">
<defs>
<symbol id="cancel" viewBox="0 0 32 32" fill='black'>
<path stroke-linejoin="round" stroke-linecap="round" stroke-miterlimit="4" stroke-width="2" d="M7 7l18 18"></path>
<path stroke-linejoin="round" stroke-linecap="round" stroke-miterlimit="4" stroke-width="2" d="M7 25l18-18"></path>
</symbol>
<symbol id="delete" viewBox="0 0 32 32">
<path fill="#134563" style="fill: var(--color1, #134563)" d="M12.25 11.45h1.5v12h-1.5z"></path>
<path fill="#134563" style="fill: var(--color1, #134563)" d="M15.25 11.45h1.5v12h-1.5z"></path>
<path fill="#134563" style="fill: var(--color1, #134563)" d="M18.25 11.45h1.5v12h-1.5z"></path>
<path fill="#134563" style="fill: var(--color1, #134563)" d="M6.25 6.95h19.5v1.5h-19.5z"></path>
<path fill="#134563" style="fill: var(--color1, #134563)" d="M19.7 7.7h-1.4v-1.5c0-0.45-0.35-0.8-0.8-0.8h-3c-0.45 0-0.8 0.35-0.8 0.8v1.5h-1.4v-1.5c0-1.2 1-2.2 2.2-2.2h3c1.2 0 2.2 1 2.2 2.2v1.5z"></path>
<path fill="#134563" style="fill: var(--color1, #134563)" d="M20.5 27.95h-9c-1.2 0-2.25-1-2.35-2.2l-1.4-18 1.5-0.1 1.4 18c0.050 0.45 0.45 0.8 0.85 0.8h9c0.45 0 0.85-0.4 0.85-0.8l1.4-18 1.5 0.1-1.4 18c-0.1 1.25-1.15 2.2-2.35 2.2z"></path>
</symbol>
<symbol id="add" viewBox="0 0 32 32">
<path d="M16 0c-8.837 0-16 7.163-16 16s7.163 16 16 16c8.837 0 16-7.163 16-16v0c-0.010-8.833-7.167-15.99-15.999-16h-0.001zM16 30.5c-8.008 0-14.5-6.492-14.5-14.5s6.492-14.5 14.5-14.5c8.008 0 14.5 6.492 14.5 14.5v0c-0.010 8.004-6.496 14.49-14.499 14.5h-0.001z"></path>
<path d="M22.5 15.25h-5.75v-5.75c0-0.414-0.336-0.75-0.75-0.75s-0.75 0.336-0.75 0.75v0 5.75h-5.75c-0.414 0-0.75 0.336-0.75 0.75s0.336 0.75 0.75 0.75v0h5.75v5.75c0 0.414 0.336 0.75 0.75 0.75s0.75-0.336 0.75-0.75v0-5.75h5.75c0.414 0 0.75-0.336 0.75-0.75s-0.336-0.75-0.75-0.75v0z"></path>
</symbol>
<symbol id="save" viewBox="0 0 32 32"><defs><style>.cls-1{fill:none;}</style></defs><title/><g data-name="Layer 2" id="Layer_2"><path d="M15,21a1,1,0,0,1-.71-.29l-4-4a1,1,0,0,1,1.42-1.42L15,18.59l6.29-6.3a1,1,0,0,1,1.42,1.42l-7,7A1,1,0,0,1,15,21Z"/><path d="M16,29A13,13,0,1,1,29,16,13,13,0,0,1,16,29ZM16,5A11,11,0,1,0,27,16,11,11,0,0,0,16,5Z"/></g><g id="frame"><rect class="cls-1" /></g></symbol>
<symbol id='paint'  version="1.1" viewBox="0 0 91 91" xml:space="preserve" xmlns="http://www.w3.org/2000/svg" xmlns:xlink="http://www.w3.org/1999/xlink"><g><path d="M26.618,69.43c0.58,0.078,1.414,0.156,2.41,0.156c4.28,0,11.537-1.473,14.468-10.706l25.979-26.366   c2.083-2.113,2.059-5.529-0.058-7.615c-2.043-2.008-5.6-1.984-7.612,0.059L36.043,51.105c-4.038,0.211-10.714,2.785-11.685,11.363   c-0.137,0.382-0.695,1.697-1.9,1.906c-1.168,0.202-1.675,1.088-1.66,1.875C20.838,68.343,24.461,69.141,26.618,69.43z    M64.227,27.342c0.736-0.746,2.058-0.758,2.805-0.02c0.779,0.768,0.789,2.025,0.021,2.805L47.09,50.39l-2.826-2.783L64.227,27.342z    M41.877,50.027l2.826,2.783l-2.706,2.747l-2.825-2.783L41.877,50.027z M27.67,63.271L27.721,63   c0.742-7.223,6.361-8.323,8.377-8.481l3.962,3.905c-1.288,3.609-3.525,6.006-6.684,7.101c-2.618,0.905-5.286,0.755-7.163,0.392   C27.005,65.025,27.473,64.002,27.67,63.271z"/></g></symbol>
</defs>
</svg>
