<svg aria-hidden="true" style="position: absolute; width: 0; height: 0; overflow: hidden;" version="1.1" xmlns="http://www.w3.org/2000/svg" xmlns:xlink="http://www.w3.org/1999/xlink">
<defs>
<symbol id="cancel" viewBox="0 0 32 32" fill='black'>
<path stroke-linejoin="round" stroke-linecap="round" stroke-miterlimit="4" stroke-width="2" d="M7 7l18 18"></path>
<path stroke-linejoin="round" stroke-linecap="round" stroke-miterlimit="4" stroke-width="2" d="M7 25l18-18"></path>
</symbol>
<symbol id="delete" viewBox="0 0 32 32">
<path fill="#134563" style="fill: var(--color1, #134563)" d="M12.25 11.45h1.5v12h-1.5z"></path>
<path fill="#134563" style="fill: var(--color1, #134563)" d="M15.25 11.45h1.5v12h-1.5z"></path>
<path fill="#134563" style="fill: var(--color1, #134563)" d="M18.25 11.45h1.5v12h-1.5z"></path>
<path fill="#134563" style="fill: var(--color1, #134563)" d="M6.25 6.95h19.5v1.5h-19.5z"></path>
<path fill="#134563" style="fill: var(--color1, #134563)" d="M19.7 7.7h-1.4v-1.5c0-0.45-0.35-0.8-0.8-0.8h-3c-0.45 0-0.8 0.35-0.8 0.8v1.5h-1.4v-1.5c0-1.2 1-2.2 2.2-2.2h3c1.2 0 2.2 1 2.2 2.2v1.5z"></path>
<path fill="#134563" style="fill: var(--color1, #134563)" d="M20.5 27.95h-9c-1.2 0-2.25-1-2.35-2.2l-1.4-18 1.5-0.1 1.4 18c0.050 0.45 0.45 0.8 0.85 0.8h9c0.45 0 0.85-0.4 0.85-0.8l1.4-18 1.5 0.1-1.4 18c-0.1 1.25-1.15 2.2-2.35 2.2z"></path>
</symbol>
<symbol id="add" viewBox="0 0 32 32">
<path d="M16 0c-8.837 0-16 7.163-16 16s7.163 16 16 16c8.837 0 16-7.163 16-16v0c-0.010-8.833-7.167-15.99-15.999-16h-0.001zM16 30.5c-8.008 0-14.5-6.492-14.5-14.5s6.492-14.5 14.5-14.5c8.008 0 14.5 6.492 14.5 14.5v0c-0.010 8.004-6.496 14.49-14.499 14.5h-0.001z"></path>
<path d="M22.5 15.25h-5.75v-5.75c0-0.414-0.336-0.75-0.75-0.75s-0.75 0.336-0.75 0.75v0 5.75h-5.75c-0.414 0-0.75 0.336-0.75 0.75s0.336 0.75 0.75 0.75v0h5.75v5.75c0 0.414 0.336 0.75 0.75 0.75s0.75-0.336 0.75-0.75v0-5.75h5.75c0.414 0 0.75-0.336 0.75-0.75s-0.336-0.75-0.75-0.75v0z"></path>
</symbol>
<symbol id="save" viewBox="0 0 32 32"><defs><style>.cls-1{fill:none;}</style></defs><title/><g data-name="Layer 2" id="Layer_2"><path d="M15,21a1,1,0,0,1-.71-.29l-4-4a1,1,0,0,1,1.42-1.42L15,18.59l6.29-6.3a1,1,0,0,1,1.42,1.42l-7,7A1,1,0,0,1,15,21Z"/><path d="M16,29A13,13,0,1,1,29,16,13,13,0,0,1,16,29ZM16,5A11,11,0,1,0,27,16,11,11,0,0,0,16,5Z"/></g><g id="frame"><rect class="cls-1" /></g></symbol>
<symbol id='paint'  version="1.1" viewBox="0 0 91 91" xml:space="preserve" xmlns="http://www.w3.org/2000/svg" xmlns:xlink="http://www.w3.org/1999/xlink"><g><path d="M26.618,69.43c0.58,0.078,1.414,0.156,2.41,0.156c4.28,0,11.537-1.473,14.468-10.706l25.979-26.366   c2.083-2.113,2.059-5.529-0.058-7.615c-2.043-2.008-5.6-1.984-7.612,0.059L36.043,51.105c-4.038,0.211-10.714,2.785-11.685,11.363   c-0.137,0.382-0.695,1.697-1.9,1.906c-1.168,0.202-1.675,1.088-1.66,1.875C20.838,68.343,24.461,69.141,26.618,69.43z    M64.227,27.342c0.736-0.746,2.058-0.758,2.805-0.02c0.779,0.768,0.789,2.025,0.021,2.805L47.09,50.39l-2.826-2.783L64.227,27.342z    M41.877,50.027l2.826,2.783l-2.706,2.747l-2.825-2.783L41.877,50.027z M27.67,63.271L27.721,63   c0.742-7.223,6.361-8.323,8.377-8.481l3.962,3.905c-1.288,3.609-3.525,6.006-6.684,7.101c-2.618,0.905-5.286,0.755-7.163,0.392   C27.005,65.025,27.473,64.002,27.67,63.271z"/></g></symbol>
<symbol id='task' viewBox="0 0 512 512" xmlns="http://www.w3.org/2000/svg">
<path d="M397.78,316H192.65A15,15,0,0,1,178,304.33L143.46,153.85a15,15,0,0,1,14.62-18.36H432.35A15,15,0,0,1,447,153.85L412.4,304.33A15,15,0,0,1,397.78,316ZM204.59,286H385.84l27.67-120.48H176.91Z"/>
<path d="M222,450a57.48,57.48,0,1,1,57.48-57.48A57.54,57.54,0,0,1,222,450Zm0-84.95a27.48,27.48,0,1,0,27.48,27.47A27.5,27.5,0,0,0,222,365.05Z"/>
<path d="M368.42,450a57.48,57.48,0,1,1,57.48-57.48A57.54,57.54,0,0,1,368.42,450Zm0-84.95a27.48,27.48,0,1,0,27.48,27.47A27.5,27.5,0,0,0,368.42,365.05Z"/>
<path d="M158.08,165.49a15,15,0,0,1-14.23-10.26L118.14,78H70.7a15,15,0,1,1,0-30H129a15,15,0,0,1,14.23,10.26l29.13,87.49a15,15,0,0,1-14.23,19.74Z"/>
</symbol>
<symbol id='thought' viewBox="0 0 100 100" xmlns="http://www.w3.org/2000/svg">
<path d="M21.49,56l.22.08a2.72,2.72,0,0,1,.6.26.55.55,0,0,1,0,.12c0,.42-.07,1-.12,1.49-.13,1.14-.21,1.83.16,2.38a12.46,12.46,0,0,0,1,1.18,2.5,2.5,0,0,0-.53,1.78A4.08,4.08,0,0,0,24,65.18a6.83,6.83,0,0,1,.65.83,8.26,8.26,0,0,1-.28.94,8.61,8.61,0,0,0-.59,3.11c.19,2.74,2.37,4.57,6.47,5.43a31.37,31.37,0,0,0,7.28.46c.51,0,1.12,0,1.5,0A16.38,16.38,0,0,1,40,79.15c.12.55.24,1.1.38,1.59.6,2.2,1.78,6.71,1.78,6.71l.39,1.46,30-14.28-.36-1.06c0-.06-2.33-7-.56-11.65a39.68,39.68,0,0,1,3.6-6.29C78,51.38,81,46.58,81.37,41.9c.46-6.78-.36-23.11-18-28.11-7.53-2.13-14.42-2.7-20.51-1.68a21,21,0,0,0-11.07,5.13,21.42,21.42,0,0,0-5.34,8.66l-.24.69c-.25.74-.52,1.47-.79,2.21A37.65,37.65,0,0,0,24,33.34a10.87,10.87,0,0,0-.11,4.5c.12.61.26,1.13.4,1.61a3.56,3.56,0,0,1-.13,3.21,23.33,23.33,0,0,1-2.94,4.53c-.16.2-.35.4-.54.61-1,1.12-2.47,2.66-2,4.69A4.81,4.81,0,0,0,21.49,56Zm1-6.48c.22-.24.44-.47.63-.7a26.33,26.33,0,0,0,3.24-5,5.94,5.94,0,0,0,.32-5c-.12-.43-.25-.89-.35-1.43a8.07,8.07,0,0,1,.09-3.45,35.38,35.38,0,0,1,1.37-4.24c.29-.76.57-1.52.82-2.29l.22-.64h0a19.1,19.1,0,0,1,4.7-7.68,18.92,18.92,0,0,1,9.77-4.49c5.72-1,12.25-.4,19.41,1.63C78,20.54,79.4,34.06,78.87,41.73c-.28,4-3.19,8.55-5.76,12.54A41.31,41.31,0,0,0,69.29,61c-1.66,4.34-.44,10,.2,12.28l-25.32,12c-.4-1.51-1-3.86-1.41-5.27-.13-.46-.24-1-.35-1.48A15.69,15.69,0,0,0,41,74.25c-.41-.69-1.07-.82-2.34-.82l-1.17,0a28.29,28.29,0,0,1-6.7-.41c-4.33-.91-4.44-2.6-4.48-3.15a6.48,6.48,0,0,1,.47-2.15,6.19,6.19,0,0,0,.41-1.8,3.91,3.91,0,0,0-1.26-2.39c-.15-.17-.35-.41-.47-.58a2.28,2.28,0,0,1,.48-.51L27,61.6l-1-1c-.53-.53-1.14-1.17-1.43-1.5,0-.24.06-.62.09-.89a15.07,15.07,0,0,0,.14-1.77,2.82,2.82,0,0,0-2.27-2.73l-.19-.07a2.31,2.31,0,0,1-1.29-1.73C20.9,51.19,21.73,50.29,22.46,49.5Zm8.18-15,3.15,1.12c.1.26.21.51.32.76l-1.45,3,.45.6A13.65,13.65,0,0,0,36,42.86l.61.45,3-1.45c.26.12.51.23.77.33l1.12,3.15.73.12a14.08,14.08,0,0,0,4.1,0l.74-.12,1.12-3.15c.26-.1.51-.21.76-.33l3,1.45.6-.45A13.47,13.47,0,0,0,55.5,40l.44-.6-1.44-3c.11-.25.22-.5.31-.76L58,34.46l.11-.74a14.08,14.08,0,0,0,0-4.1L58,28.89l-3.15-1.12c-.09-.27-.2-.52-.31-.77l1.44-3-.44-.6a13.7,13.7,0,0,0-2.9-2.89L52,20l-3,1.45a7.19,7.19,0,0,0-.76-.32L47.09,18l-.74-.12a14.08,14.08,0,0,0-4.1,0l-.73.12L40.4,21.16c-.26.09-.51.2-.77.32l-3-1.45-.61.45a13.65,13.65,0,0,0-2.89,2.89l-.45.61,1.45,3c-.11.25-.22.5-.32.77l-3.15,1.12-.11.73a13.21,13.21,0,0,0,0,4.1Zm2.27-3.73,2.87-1,.19-.59a8.67,8.67,0,0,1,.63-1.51l.3-.56-1.32-2.77A10.44,10.44,0,0,1,36.91,23l2.46,1.17H40l.27-.15a8.1,8.1,0,0,1,1.5-.63l.6-.18,1-2.88a11.67,11.67,0,0,1,1.87,0l1,2.88.6.18a8.4,8.4,0,0,1,1.5.63l.28.15h.6L51.7,23A11.14,11.14,0,0,1,53,24.28l-1.32,2.77.3.56a9.51,9.51,0,0,1,.63,1.51l.19.59,2.87,1c0,.31,0,.62,0,.94s0,.63,0,.94l-2.87,1-.19.59A9.51,9.51,0,0,1,52,35.73l-.3.56L53,39.06A12,12,0,0,1,51.7,40.4l-2.46-1.18h-.6l-.27.15a7.72,7.72,0,0,1-1.5.63l-.61.18-1,2.89a11.67,11.67,0,0,1-1.87,0l-1-2.89-.6-.18a7.47,7.47,0,0,1-1.5-.63L40,39.22h-.6L36.91,40.4a11.22,11.22,0,0,1-1.33-1.34l1.32-2.77-.3-.56A8.67,8.67,0,0,1,36,34.22l-.19-.59-2.87-1c0-.31,0-.62,0-.94S32.88,31,32.91,30.73Zm25,8.89,1.39,1.57s0,.05,0,.07l-1.7,1.21.09.74a8.93,8.93,0,0,0,.26,1.29,9.08,9.08,0,0,0,.46,1.24l.31.68,2.09.13,0,.05-.35,2.07.59.46a8.9,8.9,0,0,0,2.29,1.28l.71.26,1.57-1.39h.07L66.91,51l.74-.09a7.61,7.61,0,0,0,1.29-.27,7.91,7.91,0,0,0,1.24-.45l.68-.32L71,47.78l.05,0,2.07.35.46-.59a8.58,8.58,0,0,0,1.27-2.29l.27-.71-1.39-1.57a.2.2,0,0,1,0-.07l1.7-1.21-.09-.74a7.81,7.81,0,0,0-.27-1.29,7.91,7.91,0,0,0-.45-1.24l-.31-.67-2.09-.14,0,0,.35-2.07L71.94,35a8.48,8.48,0,0,0-2.3-1.27l-.7-.27-1.57,1.39H67.3l-1.21-1.7-.74.09a8.93,8.93,0,0,0-1.29.26,8.62,8.62,0,0,0-1.24.46l-.68.31L62,36.34l-.06,0L59.89,36l-.46.59a8.9,8.9,0,0,0-1.28,2.29Zm2.9-.5c.06-.12.13-.24.21-.37l1.41.24.58-.17.22-.21a4,4,0,0,1,.69-.55l.53-.34L64.54,36l.2-.06.21-.06,1,1.44.63,0a4.48,4.48,0,0,1,.88.1l.32.07.58-.17,1.06-.94.37.21-.3,1.75.44.46a4.52,4.52,0,0,1,.56.7l.35.52,1.75.11.06.2.06.21-1.44,1,0,.62a4.94,4.94,0,0,1-.1.89l-.14.62L72.21,45l-.21.37-1.42-.24L70,45.3l-.22.21a5.13,5.13,0,0,1-.69.56l-.53.34-.11,1.77-.2.06-.21,0-1-1.44-.64,0a4.38,4.38,0,0,1-.87-.1l-.32-.07-.58.17-1.06.94a3.47,3.47,0,0,1-.37-.21l.3-1.75L63,45.35a6.12,6.12,0,0,1-.56-.7l-.34-.52L60.39,44l-.06-.2-.06-.21,1.44-1V42a4.92,4.92,0,0,1,.11-.89l.14-.62Z"/>
</symbol>
<svg id='idea' viewBox="0 0 64 64" xmlns="http://www.w3.org/2000/svg">
<path d="M31.9919,2h0a1,1,0,0,1,1,1V8a1,1,0,0,1-1,1h0a1,1,0,0,1-1-1V3a1,1,0,0,1,1-1Z"/>
<path d="M15.0244,15.4482a1,1,0,1,0,1.4141-1.414L12.9019,10.5a1,1,0,1,0-1.4141,1.4141Z"/>
<path d="M9,30.0068H9l-5,.002a1,1,0,0,0,.0005,2H4l5-.002a1,1,0,0,0-.0005-2Z"/>
<path d="M48.9756,46.5518a1,1,0,1,0-1.4141,1.414L51.0981,51.5a1,1,0,1,0,1.4141-1.4141Z"/>
<path d="M15.0244,46.5518l-3.5366,3.5341A1,1,0,1,0,12.9019,51.5l3.5366-3.5342a1,1,0,1,0-1.4141-1.414Z"/>
<path d="M60,29.9912H60l-5,.002a1,1,0,0,0,.0005,2h.0005l5-.002a1,1,0,0,0-.0005-2Z"/>
<path d="M48.2583,15.7314a.9977.9977,0,0,0,.7075-.2929l3.5347-3.5371a1,1,0,0,0-1.4151-1.4141l-3.5346,3.5371a1,1,0,0,0,.7075,1.707Z"/>
<path d="M47.3853,38.1152a17.9763,17.9763,0,0,0-.2828-17.2832,17.187,17.187,0,0,0-13.9873-8.8h-.0019a20.2032,20.2032,0,0,0-2.2285,0,17.187,17.187,0,0,0-13.9873,8.8,17.9763,17.9763,0,0,0-.2828,17.2832L23,50.2469V55a7.0081,7.0081,0,0,0,7,7h4a7.0081,7.0081,0,0,0,7-7V50.2469ZM25,54V51H39v3ZM18.6387,21.8154A15.0009,15.0009,0,0,1,30.998,14.0283a18.0193,18.0193,0,0,1,2.002,0,15.0014,15.0014,0,0,1,12.3613,7.7871,15.9865,15.9865,0,0,1,.2544,15.3682L39.3965,49H33V40.6493a11.88,11.88,0,0,0,1.5981.1261,6.4769,6.4769,0,0,0,4.7247-1.73c3.13-3.0644,1.9877-8.99,1.9375-9.2412a.996.996,0,0,0-1.1768-.7842c-4.2992.86-6.8364,4.9369-8.0835,7.6639-1.2471-2.727-3.7843-6.8044-8.0835-7.6639a.9967.9967,0,0,0-1.1768.7842c-.05.251-1.1923,6.1768,1.9375,9.2412a6.4761,6.4761,0,0,0,4.7247,1.73A11.885,11.885,0,0,0,31,40.6493V49H24.6035L18.3843,37.1836A15.9865,15.9865,0,0,1,18.6387,21.8154Zm14.69,16.8711c.7563-1.958,2.708-6.081,6.12-7.4052.1656,1.8271.0572,4.7851-1.5249,6.3349C36.9165,38.6,35.3745,38.9609,33.3291,38.6865Zm-2.6582,0c-2.0391.2754-3.5845-.0849-4.5913-1.0674-1.6846-1.6455-1.6709-4.705-1.522-6.3359C27.9653,32.61,29.915,36.73,30.6709,38.6865ZM34,60H30a5.0083,5.0083,0,0,1-4.8989-4H38.8989A5.0083,5.0083,0,0,1,34,60Z"/>
</svg>
</defs>
</svg>
